# xmcd
#
# Track frame offsets: 
#        150
#        16034
#        31527
#        38799
#        54399
#        72288
#        90412
#        95226
#        117421
#        136746
#        152639
#        168201
#        184382
#        200474
#        216193
#        234664
#        254642
#
# Disc length: 3653 seconds
#
# Revision: 0
# Processed by: cddbd v1.5.2PL0 Copyright (c) Steve Scherf et al.
# Submitted via: ExactAudioCopy v1.0b1
#
DISCID=e20e4311
DTITLE=Shokmuzik (Crackaveli and D Irie) - Doppeltes Risiko
DYEAR=2005
DGENRE=Hip-Hop
TTITLE0=Doppeltes Risisko
TTITLE1=Was!
TTITLE2=Handy Skit
TTITLE3=Hektik
TTITLE4=Die Strassen Sind Kalt
TTITLE5=Nur Die Starken
TTITLE6=Auto Skit
TTITLE7=Drück Aufs Gas
TTITLE8=Dreh Auf
TTITLE9=Fahr Noch Ne Bahn
TTITLE10=Wir Nehmen Dich Aus
TTITLE11=Stress Im Club
TTITLE12=Komm An Die Bar
TTITLE13=Wir Lassens Jeden Wissen
TTITLE14=Strassengesetz
TTITLE15=Baby Ich Will
TTITLE16=Leise?
EXTD=
EXTT0=
EXTT1=
EXTT2=
EXTT3=
EXTT4=
EXTT5=
EXTT6=
EXTT7=
EXTT8=
EXTT9=
EXTT10=
EXTT11=
EXTT12=
EXTT13=
EXTT14=
EXTT15=
EXTT16=
PLAYORDER=
